<?xml version="1.0" standalone="no"?>
<!DOCTYPE svg PUBLIC "-//W3C//DTD SVG 20010904//EN"
 "http://www.w3.org/TR/2001/REC-SVG-20010904/DTD/svg10.dtd">
<svg version="1.0" xmlns="http://www.w3.org/2000/svg"
 width="672.000000pt" height="411.000000pt" viewBox="0 0 672.000000 411.000000"
 preserveAspectRatio="xMidYMid meet">

<g transform="translate(0.000000,411.000000) scale(0.100000,-0.100000)"
fill="#000000" stroke="none">
<path d="M3090 3919 c-323 -18 -597 -82 -960 -224 -259 -101 -600 -279 -815
-426 -330 -224 -756 -615 -1039 -952 -145 -174 -166 -208 -166 -271 0 -65 13
-86 153 -251 496 -583 1094 -1070 1613 -1316 155 -73 415 -177 549 -218 125
-39 395 -95 540 -113 144 -17 583 -17 740 0 313 35 678 142 1042 305 273 122
652 373 993 656 287 238 780 774 819 890 22 65 15 95 -40 167 -239 316 -603
682 -929 933 -102 79 -399 280 -490 333 -25 14 -131 69 -237 122 -454 227
-850 338 -1307 365 -196 12 -252 12 -466 0z m408 -356 c36 -4 56 -12 62 -24 6
-10 14 -70 18 -133 7 -87 13 -120 26 -135 10 -10 56 -31 103 -46 47 -15 111
-37 141 -51 30 -13 65 -24 77 -24 22 0 71 47 169 163 27 31 56 57 66 57 21 0
189 -132 283 -222 88 -85 88 -100 8 -211 -101 -141 -100 -116 -13 -296 41 -86
83 -164 94 -173 17 -15 42 -18 168 -18 l148 0 11 -65 c29 -167 40 -392 19
-413 -7 -7 -29 -12 -50 -12 -20 0 -72 -5 -114 -11 -105 -16 -118 -30 -143
-149 -11 -52 -28 -122 -39 -155 -26 -84 -18 -101 81 -170 110 -78 127 -95 127
-121 0 -24 -87 -162 -181 -284 -43 -57 -67 -80 -82 -80 -12 0 -66 29 -120 65
-132 88 -141 90 -219 28 -35 -28 -89 -67 -121 -88 -37 -25 -60 -47 -64 -64 -3
-14 4 -80 17 -146 12 -66 25 -132 27 -147 4 -20 -1 -30 -18 -41 -45 -29 -314
-91 -371 -85 -32 3 -33 4 -73 128 -49 153 -46 151 -203 147 -138 -3 -136 -1
-182 -150 -43 -139 -44 -140 -150 -122 -107 19 -224 48 -272 69 -46 20 -46 18
-12 194 20 102 24 140 16 158 -6 12 -44 45 -84 72 -40 27 -90 64 -112 81 -21
17 -50 31 -64 31 -14 0 -76 -29 -137 -65 -62 -36 -121 -65 -133 -65 -35 0
-266 332 -260 374 2 12 37 43 88 77 97 65 140 109 140 142 0 12 -9 51 -20 87
-11 36 -25 95 -30 133 -10 71 -25 103 -50 112 -8 4 -66 13 -130 21 -172 22
-154 -1 -146 193 3 91 12 195 19 231 l13 65 151 5 c170 6 182 10 211 85 8 22
39 87 69 144 29 57 53 116 53 130 0 19 -25 58 -80 127 -52 64 -80 108 -80 124
0 32 94 126 233 234 132 102 144 102 222 4 86 -108 117 -138 141 -138 12 0 52
13 90 28 38 16 101 39 139 52 39 12 78 30 87 39 19 18 37 124 38 223 0 34 5
60 13 65 29 19 277 29 385 16z m1441 -450 c257 -156 476 -313 657 -470 128
-110 391 -372 492 -486 101 -116 104 -93 -34 -249 -289 -325 -597 -598 -939
-829 -125 -84 -298 -189 -303 -184 -2 1 14 26 36 55 448 592 436 1639 -24
2208 -15 17 -23 32 -19 32 4 0 65 -34 134 -77z m-3079 63 c0 -3 -22 -33 -48
-68 -93 -123 -194 -346 -245 -543 -93 -357 -84 -785 25 -1124 56 -176 146
-358 237 -480 23 -30 39 -56 36 -59 -6 -7 -236 136 -377 235 -271 189 -546
433 -797 707 -81 90 -156 175 -166 189 l-17 26 134 148 c318 349 633 613 1030
863 162 102 188 117 188 106z"/>
<path d="M3195 2714 c-38 -8 -113 -36 -165 -61 -79 -38 -107 -59 -180 -132
-97 -97 -144 -181 -179 -315 -80 -305 70 -648 344 -788 199 -102 419 -103 625
-2 285 140 444 474 371 779 -61 253 -230 437 -471 510 -79 23 -258 29 -345 9z
m303 -343 c47 -24 77 -56 97 -103 52 -125 -44 -268 -179 -268 -58 0 -93 14
-135 53 -101 96 -75 252 54 320 41 22 118 21 163 -2z"/>
</g>
</svg>
