<svg width="21" height="22" viewBox="0 0 21 22" fill="none" xmlns="http://www.w3.org/2000/svg">
<path d="M11.0008 4.00884C11.002 3.60887 10.9232 3.2127 10.769 2.84364C10.6148 2.47457 10.3884 2.14007 10.1031 1.85979C9.81773 1.5795 9.47923 1.35911 9.10746 1.21157C8.7357 1.06403 8.33819 0.992316 7.9383 1.00065C7.53842 1.00899 7.14424 1.0972 6.77894 1.26011C6.41365 1.42301 6.08462 1.65732 5.81121 1.94924C5.53779 2.24117 5.32552 2.58482 5.18686 2.95999C5.0482 3.33516 4.98596 3.73427 5.00381 4.13384C4.41601 4.28498 3.87031 4.56789 3.40804 4.96115C2.94577 5.35441 2.57905 5.84771 2.33565 6.40369C2.09225 6.95966 1.97857 7.56373 2.0032 8.17015C2.02782 8.77657 2.19013 9.36943 2.47781 9.90384C1.97199 10.3148 1.57423 10.8431 1.31915 11.4428C1.06406 12.0425 0.959364 12.6954 1.01417 13.3448C1.06898 13.9942 1.28162 14.6204 1.63361 15.1689C1.9856 15.7173 2.46627 16.1715 3.03381 16.4918C2.96372 17.0341 3.00555 17.5849 3.15669 18.1104C3.30784 18.6358 3.5651 19.1247 3.91259 19.5468C4.26008 19.9689 4.69042 20.3153 5.17703 20.5646C5.66364 20.8139 6.19618 20.9608 6.74178 20.9962C7.28738 21.0316 7.83445 20.9548 8.34919 20.7705C8.86394 20.5861 9.33544 20.2983 9.73457 19.9246C10.1337 19.5509 10.452 19.0994 10.6698 18.5979C10.8876 18.0964 11.0002 17.5556 11.0008 17.0088V4.00884Z" stroke="#9D4EDD" stroke-width="2" stroke-linecap="round" stroke-linejoin="round"/>
<path d="M8.00103 12.0088C8.84058 11.7134 9.57371 11.1758 10.1077 10.4638C10.6417 9.7518 10.9526 8.89746 11.001 8.00879M5.00403 4.13379C5.0238 4.61752 5.16036 5.08928 5.40203 5.50879M2.47803 9.90479C2.66097 9.75579 2.85673 9.62328 3.06303 9.50879M5.00103 17.0088C4.31186 17.0091 3.63429 16.8314 3.03403 16.4928M11.001 12.0088H15.001M11.001 17.0088H17.001C17.5315 17.0088 18.0402 17.2195 18.4152 17.5946C18.7903 17.9696 19.001 18.4784 19.001 19.0088V20.0088M11.001 7.00879H19.001M15.001 7.00879V4.00879C15.001 3.47836 15.2117 2.96965 15.5868 2.59458C15.9619 2.2195 16.4706 2.00879 17.001 2.00879" stroke="#9D4EDD" stroke-width="2" stroke-linecap="round" stroke-linejoin="round"/>
<path d="M15.001 12.5088C15.2771 12.5088 15.501 12.2849 15.501 12.0088C15.501 11.7326 15.2771 11.5088 15.001 11.5088C14.7248 11.5088 14.501 11.7326 14.501 12.0088C14.501 12.2849 14.7248 12.5088 15.001 12.5088Z" stroke="#9D4EDD" stroke-width="2" stroke-linecap="round" stroke-linejoin="round"/>
<path d="M17.001 2.50879C17.2771 2.50879 17.501 2.28493 17.501 2.00879C17.501 1.73265 17.2771 1.50879 17.001 1.50879C16.7248 1.50879 16.501 1.73265 16.501 2.00879C16.501 2.28493 16.7248 2.50879 17.001 2.50879Z" stroke="#9D4EDD" stroke-width="2" stroke-linecap="round" stroke-linejoin="round"/>
<path d="M19.001 20.5088C19.2771 20.5088 19.501 20.2849 19.501 20.0088C19.501 19.7326 19.2771 19.5088 19.001 19.5088C18.7248 19.5088 18.501 19.7326 18.501 20.0088C18.501 20.2849 18.7248 20.5088 19.001 20.5088Z" stroke="#9D4EDD" stroke-width="2" stroke-linecap="round" stroke-linejoin="round"/>
<path d="M19.001 7.50879C19.2771 7.50879 19.501 7.28493 19.501 7.00879C19.501 6.73265 19.2771 6.50879 19.001 6.50879C18.7248 6.50879 18.501 6.73265 18.501 7.00879C18.501 7.28493 18.7248 7.50879 19.001 7.50879Z" stroke="#9D4EDD" stroke-width="2" stroke-linecap="round" stroke-linejoin="round"/>
</svg>
