<svg width="1160" height="169" viewBox="0 0 1160 169" fill="none" xmlns="http://www.w3.org/2000/svg">
<path d="M6.661 169C5.68144 169 4.808 168.793 4.04068 168.379C3.27336 168.006 2.74277 167.633 2.4489 167.26L3.91824 154.337C5.32227 155.248 6.56305 155.579 7.64056 155.331C8.71808 155.082 9.67315 153.86 10.5058 151.665C11.3547 149.511 12.1302 146.011 12.8322 141.165L13.9097 133.709L0 37.7765H6.26918L16.6525 113.826H17.0443L27.4277 37.7765H33.6968L17.73 147.129C17.0117 152.059 16.1219 156.139 15.0607 159.369C13.9995 162.642 12.7669 165.065 11.3629 166.639C9.97518 168.213 8.40788 169 6.661 169Z" fill="#121212"/>
<path d="M48.9109 169V37.7765H54.4943V52.9368H55.18C55.6045 51.2799 56.1922 49.1674 56.9432 46.5993C57.7106 43.9897 58.8044 41.6701 60.2248 39.6405C61.6615 37.5694 63.6042 36.5338 66.0531 36.5338C69.2204 36.5338 72.0121 38.5428 74.4284 42.5607C76.8446 46.5786 78.7303 52.274 80.0853 59.6471C81.4404 67.0201 82.1179 75.7186 82.1179 85.7427C82.1179 95.8495 81.4404 104.61 80.0853 112.025C78.7303 119.398 76.8528 125.114 74.4529 129.173C72.0529 133.191 69.2857 135.2 66.1511 135.2C63.7348 135.2 61.8002 134.185 60.3472 132.156C58.8942 130.084 57.7759 127.744 56.9922 125.135C56.2086 122.484 55.6045 120.288 55.18 118.549H54.6903V169H48.9109ZM54.5923 85.4941C54.5923 92.7015 55.0086 99.0597 55.8412 104.569C56.6739 110.036 57.8901 114.324 59.4901 117.43C61.09 120.495 63.0492 122.028 65.3674 122.028C67.7837 122.028 69.8 120.413 71.4162 117.182C73.0488 113.909 74.2733 109.519 75.0896 104.01C75.9222 98.4591 76.3385 92.2873 76.3385 85.4941C76.3385 78.7838 75.9304 72.7363 75.1141 67.3515C74.3141 61.9253 73.0978 57.6381 71.4652 54.4901C69.8489 51.3006 67.8163 49.7059 65.3674 49.7059C63.0165 49.7059 61.0411 51.2178 59.4411 54.2416C57.8412 57.2239 56.633 61.4075 55.8167 66.7923C55.0004 72.1357 54.5923 78.3696 54.5923 85.4941Z" fill="#121212"/>
<path d="M113.801 135.2C110.405 135.2 107.425 133.15 104.862 129.049C102.315 124.948 100.324 119.211 98.887 111.838C97.4666 104.465 96.7564 95.8495 96.7564 85.9912C96.7564 76.05 97.4666 67.3722 98.887 59.9577C100.324 52.5433 102.315 46.7857 104.862 42.6849C107.425 38.5842 110.405 36.5338 113.801 36.5338C117.197 36.5338 120.168 38.5842 122.715 42.6849C125.278 46.7857 127.27 52.5433 128.69 59.9577C130.127 67.3722 130.845 76.05 130.845 85.9912C130.845 95.8495 130.127 104.465 128.69 111.838C127.27 119.211 125.278 124.948 122.715 129.049C120.168 133.15 117.197 135.2 113.801 135.2ZM113.801 122.028C116.38 122.028 118.503 120.35 120.168 116.995C121.833 113.64 123.066 109.229 123.866 103.761C124.666 98.2934 125.066 92.3701 125.066 85.9912C125.066 79.6123 124.666 73.6683 123.866 68.1592C123.066 62.6501 121.833 58.1973 120.168 54.8007C118.503 51.4042 116.38 49.7059 113.801 49.7059C111.221 49.7059 109.099 51.4042 107.434 54.8007C105.768 58.1973 104.536 62.6501 103.736 68.1592C102.936 73.6683 102.536 79.6123 102.536 85.9912C102.536 92.3701 102.936 98.2934 103.736 103.761C104.536 109.229 105.768 113.64 107.434 116.995C109.099 120.35 111.221 122.028 113.801 122.028Z" fill="#121212"/>
<path d="M151.465 134.206C150.257 134.206 149.22 133.108 148.355 130.913C147.49 128.718 147.057 126.087 147.057 123.022C147.057 119.957 147.49 117.327 148.355 115.131C149.22 112.936 150.257 111.838 151.465 111.838C152.673 111.838 153.71 112.936 154.575 115.131C155.44 117.327 155.873 119.957 155.873 123.022C155.873 125.052 155.669 126.916 155.261 128.614C154.869 130.312 154.338 131.679 153.669 132.715C153.016 133.709 152.281 134.206 151.465 134.206Z" fill="#121212"/>
<path d="M188.033 135.2C184.899 135.2 182.132 133.191 179.732 129.173C177.332 125.114 175.454 119.398 174.099 112.025C172.744 104.61 172.067 95.8495 172.067 85.7427C172.067 75.7186 172.744 67.0201 174.099 59.6471C175.454 52.274 177.34 46.5786 179.756 42.5607C182.172 38.5428 184.964 36.5338 188.131 36.5338C190.58 36.5338 192.515 37.5694 193.935 39.6405C195.372 41.6701 196.466 43.9897 197.217 46.5993C197.984 49.1674 198.58 51.2799 199.005 52.9368H199.494V5.96471H205.274V133.212H199.69V118.549H199.005C198.58 120.288 197.976 122.484 197.192 125.135C196.409 127.744 195.29 130.084 193.837 132.156C192.384 134.185 190.45 135.2 188.033 135.2ZM188.817 122.028C191.135 122.028 193.095 120.495 194.694 117.43C196.294 114.324 197.511 110.036 198.343 104.569C199.176 99.0597 199.592 92.7015 199.592 85.4941C199.592 78.3696 199.184 72.1357 198.368 66.7923C197.552 61.4075 196.343 57.2239 194.743 54.2416C193.144 51.2178 191.168 49.7059 188.817 49.7059C186.368 49.7059 184.327 51.3006 182.695 54.4901C181.079 57.6381 179.862 61.9253 179.046 67.3515C178.246 72.7363 177.846 78.7838 177.846 85.4941C177.846 92.2873 178.254 98.4591 179.071 104.01C179.903 109.519 181.128 113.909 182.744 117.182C184.376 120.413 186.401 122.028 188.817 122.028Z" fill="#121212"/>
<path d="M239.528 135.2C236.001 135.2 232.965 133.088 230.418 128.863C227.871 124.638 225.912 118.818 224.541 111.403C223.169 103.989 222.484 95.5181 222.484 85.9912C222.484 76.2985 223.186 67.745 224.59 60.3305C226.01 52.8746 227.985 47.0549 230.516 42.8713C233.063 38.6463 236.034 36.5338 239.43 36.5338C242.075 36.5338 244.458 37.7765 246.581 40.2618C248.703 42.7471 250.442 46.2265 251.797 50.7C253.152 55.1735 253.993 60.3927 254.319 66.3574H248.54C248.099 62.0081 247.119 58.1559 245.601 54.8007C244.099 51.4042 242.075 49.7059 239.528 49.7059C237.275 49.7059 235.299 51.1971 233.602 54.1794C231.92 57.1203 230.606 61.2832 229.659 66.668C228.728 72.0114 228.263 78.2868 228.263 85.4941C228.263 92.8672 228.72 99.2875 229.634 104.755C230.565 110.223 231.871 114.469 233.553 117.492C235.25 120.516 237.242 122.028 239.528 122.028C241.03 122.028 242.393 121.365 243.618 120.04C244.842 118.714 245.879 116.809 246.728 114.324C247.577 111.838 248.181 108.856 248.54 105.376H254.319C253.993 111.01 253.185 116.084 251.895 120.599C250.621 125.072 248.932 128.635 246.826 131.286C244.736 133.895 242.303 135.2 239.528 135.2Z" fill="#121212"/>
<path d="M286.125 135.2C282.5 135.2 279.374 133.17 276.745 129.111C274.133 125.01 272.117 119.294 270.697 111.963C269.292 104.589 268.59 96.0152 268.59 86.2397C268.59 76.4642 269.292 67.8485 270.697 60.3927C272.117 52.8954 274.092 47.0549 276.623 42.8713C279.17 38.6463 282.141 36.5338 285.537 36.5338C287.496 36.5338 289.431 37.3623 291.341 39.0191C293.251 40.676 294.99 43.3684 296.557 47.0963C298.124 50.7828 299.373 55.6706 300.304 61.7596C301.234 67.8485 301.7 75.3458 301.7 84.2515V90.4647H272.705V77.7897H295.822C295.822 72.4049 295.398 67.6 294.549 63.375C293.716 59.15 292.524 55.8156 290.973 53.3717C289.439 50.9278 287.627 49.7059 285.537 49.7059C283.235 49.7059 281.243 51.1556 279.562 54.0552C277.896 56.9132 276.615 60.6412 275.717 65.239C274.819 69.8368 274.37 74.7659 274.37 80.0265V88.4765C274.37 95.6838 274.86 101.794 275.839 106.806C276.835 111.776 278.215 115.566 279.978 118.176C281.741 120.744 283.79 122.028 286.125 122.028C287.643 122.028 289.014 121.489 290.239 120.413C291.479 119.294 292.549 117.637 293.447 115.442C294.345 113.205 295.039 110.43 295.528 107.116L301.112 111.093C300.524 115.898 299.536 120.123 298.149 123.768C296.761 127.371 295.047 130.188 293.006 132.218C290.965 134.206 288.671 135.2 286.125 135.2Z" fill="#121212"/>
<path d="M322.289 134.206C321.081 134.206 320.044 133.108 319.179 130.913C318.314 128.718 317.881 126.087 317.881 123.022C317.881 119.957 318.314 117.327 319.179 115.131C320.044 112.936 321.081 111.838 322.289 111.838C323.497 111.838 324.534 112.936 325.399 115.131C326.264 117.327 326.697 119.957 326.697 123.022C326.697 125.052 326.493 126.916 326.085 128.614C325.693 130.312 325.162 131.679 324.493 132.715C323.84 133.709 323.105 134.206 322.289 134.206Z" fill="#121212"/>
<path d="M361.012 37.7765V50.2029H341.519V37.7765H361.012ZM347.201 14.9118H352.98V105.874C352.98 110.016 353.217 113.122 353.69 115.193C354.18 117.223 354.8 118.59 355.551 119.294C356.319 119.957 357.127 120.288 357.976 120.288C358.612 120.288 359.135 120.205 359.543 120.04C359.951 119.833 360.278 119.667 360.523 119.543L361.698 132.715C361.306 133.088 360.759 133.46 360.057 133.833C359.355 134.247 358.465 134.454 357.388 134.454C355.755 134.454 354.155 133.564 352.588 131.783C351.037 130.002 349.747 127.288 348.719 123.643C347.707 119.998 347.201 115.4 347.201 109.85V14.9118Z" fill="#121212"/>
<path d="M392.169 135.2C388.773 135.2 385.793 133.15 383.23 129.049C380.683 124.948 378.692 119.211 377.255 111.838C375.835 104.465 375.124 95.8495 375.124 85.9912C375.124 76.05 375.835 67.3722 377.255 59.9577C378.692 52.5433 380.683 46.7857 383.23 42.6849C385.793 38.5842 388.773 36.5338 392.169 36.5338C395.564 36.5338 398.536 38.5842 401.083 42.6849C403.646 46.7857 405.638 52.5433 407.058 59.9577C408.495 67.3722 409.213 76.05 409.213 85.9912C409.213 95.8495 408.495 104.465 407.058 111.838C405.638 119.211 403.646 124.948 401.083 129.049C398.536 133.15 395.564 135.2 392.169 135.2ZM392.169 122.028C394.748 122.028 396.871 120.35 398.536 116.995C400.201 113.64 401.434 109.229 402.234 103.761C403.034 98.2934 403.434 92.3701 403.434 85.9912C403.434 79.6123 403.034 73.6683 402.234 68.1592C401.434 62.6501 400.201 58.1973 398.536 54.8007C396.871 51.4042 394.748 49.7059 392.169 49.7059C389.589 49.7059 387.467 51.4042 385.802 54.8007C384.136 58.1973 382.904 62.6501 382.104 68.1592C381.304 73.6683 380.904 79.6123 380.904 85.9912C380.904 92.3701 381.304 98.2934 382.104 103.761C382.904 109.229 384.136 113.64 385.802 116.995C387.467 120.35 389.589 122.028 392.169 122.028Z" fill="#121212"/>
<path d="M432.863 133.212L421.403 37.7765H427.476L435.606 110.844H435.998L444.03 37.7765H450.202L458.136 110.596H458.528L466.658 37.7765H472.732L461.271 133.212H455.589L447.361 59.8956H446.773L438.545 133.212H432.863Z" fill="#121212"/>
<path d="M504.708 37.7765V50.2029H484.431V37.7765H504.708ZM490.505 133.212V24.6044C490.505 19.1368 491.011 14.5804 492.023 10.9353C493.035 7.2902 494.349 4.55637 495.966 2.73382C497.582 0.911274 499.288 0 501.084 0C502.504 0 503.663 0.289953 504.561 0.869859C505.459 1.44976 506.129 1.98824 506.569 2.4853L504.904 15.1603C504.61 14.9118 504.202 14.6011 503.68 14.2283C503.174 13.8555 502.504 13.6691 501.672 13.6691C499.762 13.6691 498.382 14.8911 497.533 17.3349C496.7 19.7788 496.284 23.3618 496.284 28.0838V133.212H490.505Z" fill="#121212"/>
<path d="M526.173 5.96471V133.212H520.394V5.96471H526.173Z" fill="#121212"/>
<path d="M545.128 133.212V5.96471H550.907V52.9368H551.397C551.821 51.2799 552.409 49.1674 553.16 46.5993C553.928 43.9897 555.021 41.6701 556.442 39.6405C557.878 37.5694 559.821 36.5338 562.27 36.5338C565.437 36.5338 568.229 38.5428 570.645 42.5607C573.062 46.5786 574.947 52.274 576.302 59.6471C577.657 67.0201 578.335 75.7186 578.335 85.7427C578.335 95.8495 577.657 104.61 576.302 112.025C574.947 119.398 573.07 125.114 570.67 129.173C568.27 133.191 565.503 135.2 562.368 135.2C559.952 135.2 558.017 134.185 556.564 132.156C555.111 130.084 553.993 127.744 553.209 125.135C552.426 122.484 551.821 120.288 551.397 118.549H550.711V133.212H545.128ZM550.809 85.4941C550.809 92.7015 551.226 99.0597 552.058 104.569C552.891 110.036 554.107 114.324 555.707 117.43C557.307 120.495 559.266 122.028 561.584 122.028C564.001 122.028 566.017 120.413 567.633 117.182C569.266 113.909 570.49 109.519 571.307 104.01C572.139 98.4591 572.555 92.2873 572.555 85.4941C572.555 78.7838 572.147 72.7363 571.331 67.3515C570.531 61.9253 569.315 57.6381 567.682 54.4901C566.066 51.3006 564.033 49.7059 561.584 49.7059C559.233 49.7059 557.258 51.2178 555.658 54.2416C554.058 57.2239 552.85 61.4075 552.034 66.7923C551.217 72.1357 550.809 78.3696 550.809 85.4941Z" fill="#121212"/>
<path d="M621.405 59.15L616.213 62.8779C615.887 60.6826 615.405 58.5494 614.769 56.4783C614.148 54.3658 613.299 52.6261 612.222 51.2592C611.144 49.8923 609.765 49.2088 608.083 49.2088C605.781 49.2088 603.863 50.555 602.328 53.2474C600.81 55.8984 600.051 59.2743 600.051 63.375C600.051 67.0201 600.573 69.8989 601.618 72.0114C602.663 74.1239 604.295 75.8843 606.516 77.2927L612.099 80.7721C615.462 82.8431 617.969 86.0119 619.617 90.2783C621.266 94.5033 622.091 99.9503 622.091 106.619C622.091 112.087 621.47 116.975 620.23 121.282C619.005 125.59 617.291 128.987 615.087 131.472C612.883 133.957 610.32 135.2 607.397 135.2C603.561 135.2 600.385 133.088 597.871 128.863C595.357 124.638 593.765 118.466 593.096 110.347L598.581 106.868C599.104 112.004 600.092 115.856 601.545 118.424C603.014 120.992 604.932 122.276 607.299 122.276C609.993 122.276 612.132 120.827 613.716 117.927C615.316 114.986 616.116 111.465 616.116 107.365C616.116 104.051 615.658 101.276 614.744 99.039C613.83 96.7608 612.426 95.0625 610.532 93.9441L604.263 90.2162C600.818 88.1451 598.288 84.9349 596.671 80.5857C595.071 76.195 594.271 70.7066 594.271 64.1206C594.271 58.7358 594.867 53.9723 596.059 49.8302C597.267 45.688 598.908 42.4364 600.981 40.0754C603.071 37.7143 605.438 36.5338 608.083 36.5338C611.805 36.5338 614.728 38.6049 616.85 42.7471C618.989 46.8892 620.507 52.3569 621.405 59.15Z" fill="#121212"/>
<path d="M652.58 135.2C649.445 135.2 646.678 133.191 644.278 129.173C641.878 125.114 640.001 119.398 638.646 112.025C637.291 104.61 636.613 95.8495 636.613 85.7427C636.613 75.7186 637.291 67.0201 638.646 59.6471C640.001 52.274 641.886 46.5786 644.303 42.5607C646.719 38.5428 649.511 36.5338 652.678 36.5338C655.127 36.5338 657.061 37.5694 658.482 39.6405C659.918 41.6701 661.012 43.9897 661.763 46.5993C662.53 49.1674 663.126 51.2799 663.551 52.9368H664.041V5.96471H669.82V133.212H664.237V118.549H663.551C663.126 120.288 662.522 122.484 661.739 125.135C660.955 127.744 659.837 130.084 658.384 132.156C656.931 134.185 654.996 135.2 652.58 135.2ZM653.363 122.028C655.682 122.028 657.641 120.495 659.241 117.43C660.841 114.324 662.057 110.036 662.89 104.569C663.722 99.0597 664.139 92.7015 664.139 85.4941C664.139 78.3696 663.73 72.1357 662.914 66.7923C662.098 61.4075 660.89 57.2239 659.29 54.2416C657.69 51.2178 655.714 49.7059 653.363 49.7059C650.915 49.7059 648.874 51.3006 647.241 54.4901C645.625 57.6381 644.409 61.9253 643.592 67.3515C642.792 72.7363 642.392 78.7838 642.392 85.4941C642.392 92.2873 642.8 98.4591 643.617 104.01C644.449 109.519 645.674 113.909 647.29 117.182C648.923 120.413 650.947 122.028 653.363 122.028Z" fill="#121212"/>
<path d="M717.69 166.763C712.694 166.763 708.278 165.024 704.442 161.544C700.605 158.106 697.381 153.032 694.768 146.322C692.156 139.611 690.181 131.389 688.842 121.655C687.503 111.921 686.834 100.779 686.834 88.2279C686.834 76.0914 687.512 65.239 688.867 55.6706C690.238 46.1022 692.222 37.9836 694.817 31.3147C697.43 24.6044 700.597 19.4889 704.319 15.968C708.058 12.4472 712.286 10.6868 717.004 10.6868C721.592 10.6868 725.608 12.5922 729.053 16.4029C732.514 20.1723 735.404 25.2879 737.722 31.7496C740.057 38.17 741.804 45.398 742.963 53.4338C744.138 61.4696 744.726 69.7539 744.726 78.2868C744.726 84.2929 744.612 90.3819 744.383 96.5537C744.155 102.725 743.673 108.4 742.938 113.578C742.204 118.714 741.069 122.856 739.534 126.004C738.016 129.152 735.959 130.726 733.363 130.726C732.22 130.726 730.963 130.271 729.592 129.36C728.22 128.448 727.004 126.936 725.943 124.824C724.882 122.711 724.253 119.874 724.057 116.312H723.763C723.372 118.714 722.768 120.992 721.951 123.146C721.151 125.3 720.098 127.019 718.792 128.303C717.502 129.587 715.927 130.147 714.066 129.981C711.943 129.774 710.074 128.573 708.458 126.377C706.842 124.14 705.486 121.117 704.393 117.306C703.315 113.454 702.499 109.001 701.944 103.947C701.405 98.8526 701.136 93.3642 701.136 87.4824C701.136 81.8904 701.462 76.7749 702.115 72.1357C702.768 67.4965 703.674 63.4371 704.833 59.9577C706.009 56.4783 707.38 53.7031 708.948 51.632C710.531 49.5195 712.237 48.2147 714.066 47.7177C715.698 47.3034 717.184 47.4898 718.523 48.2768C719.862 49.0224 720.963 50.1615 721.829 51.6941C722.694 53.1853 723.241 54.8422 723.47 56.6647H723.763V49.7059H728.955V105.874C728.955 109.353 729.339 112.418 730.106 115.069C730.873 117.72 731.992 119.046 733.461 119.046C735.126 119.046 736.4 117.596 737.281 114.696C738.179 111.797 738.791 107.323 739.118 101.276C739.461 95.2282 739.632 87.4824 739.632 78.0382C739.632 72.4878 739.33 67.0201 738.726 61.6353C738.138 56.2091 737.241 51.1349 736.032 46.4129C734.841 41.6908 733.33 37.5279 731.502 33.9243C729.673 30.3206 727.527 27.5039 725.061 25.4743C722.612 23.4032 719.829 22.3677 716.711 22.3677C712.874 22.3677 709.437 23.8795 706.401 26.9033C703.38 29.8857 700.809 34.2556 698.687 40.0132C696.581 45.7294 694.973 52.6882 693.862 60.8897C692.769 69.0498 692.222 78.3282 692.222 88.725C692.222 99.2875 692.769 108.669 693.862 116.871C694.973 125.072 696.605 131.99 698.76 137.623C700.932 143.257 703.617 147.523 706.817 150.422C710.017 153.363 713.707 154.834 717.886 154.834C719.682 154.834 721.453 154.399 723.2 153.529C724.947 152.659 726.49 151.707 727.829 150.671C729.167 149.635 730.131 148.869 730.718 148.372L732.09 159.804C731.077 160.881 729.755 161.958 728.122 163.035C726.506 164.112 724.776 165.003 722.931 165.707C721.102 166.411 719.355 166.763 717.69 166.763ZM714.849 117.306C717.037 117.306 718.808 116.188 720.164 113.951C721.519 111.714 722.506 108.338 723.127 103.823C723.747 99.3082 724.057 93.6128 724.057 86.7368C724.057 79.7779 723.714 74.3517 723.029 70.4581C722.343 66.5645 721.331 63.8306 719.992 62.2566C718.653 60.6826 717.004 59.8956 715.045 59.8956C713.184 59.8956 711.592 61.1382 710.27 63.6235C708.964 66.0674 707.96 69.3397 707.258 73.4404C706.572 77.4998 706.229 81.9319 706.229 86.7368C706.229 92.0387 706.507 97.03 707.062 101.711C707.617 106.35 708.523 110.119 709.78 113.019C711.037 115.877 712.727 117.306 714.849 117.306Z" fill="#121212"/>
<path d="M760.962 133.212V37.7765H766.546V52.1912H766.938C767.623 47.4691 768.864 43.6376 770.66 40.6967C772.456 37.7558 774.48 36.2853 776.733 36.2853C777.158 36.2853 777.688 36.306 778.325 36.3474C778.962 36.3889 779.443 36.451 779.77 36.5338V51.4456C779.574 51.3213 779.125 51.1349 778.423 50.8864C777.737 50.5965 777.011 50.4515 776.244 50.4515C774.415 50.4515 772.782 51.4249 771.346 53.3717C769.925 55.2771 768.799 57.9281 767.966 61.3246C767.15 64.6798 766.742 68.5113 766.742 72.8191V133.212H760.962Z" fill="#121212"/>
<path d="M794.206 133.212V37.7765H799.79V52.6882H800.28C801.063 47.5934 802.329 43.6376 804.075 40.821C805.822 37.9629 807.92 36.5338 810.369 36.5338C812.851 36.5338 814.916 37.9629 816.565 40.821C818.23 43.6376 819.528 47.5934 820.459 52.6882H820.85C821.814 47.7591 823.259 43.8447 825.185 40.9452C827.111 38.0043 829.422 36.5338 832.115 36.5338C835.479 36.5338 838.229 39.2055 840.368 44.5489C842.507 49.8509 843.576 58.1145 843.576 69.3397V133.212H837.797V69.3397C837.797 62.298 837.038 57.2653 835.519 54.2416C834.001 51.2178 832.213 49.7059 830.156 49.7059C827.511 49.7059 825.462 51.7355 824.009 55.7949C822.556 59.8128 821.83 64.9076 821.83 71.0794V133.212H815.953V67.8485C815.953 62.4223 815.259 58.0523 813.871 54.7386C812.483 51.3835 810.696 49.7059 808.508 49.7059C807.006 49.7059 805.602 50.7207 804.296 52.7504C803.006 54.78 801.961 57.5967 801.161 61.2004C800.378 64.7626 799.986 68.8841 799.986 73.5647V133.212H794.206Z" fill="#121212"/>
<path d="M862.513 133.212V5.96471H868.292V52.9368H868.782C869.206 51.2799 869.794 49.1674 870.545 46.5993C871.312 43.9897 872.406 41.6701 873.826 39.6405C875.263 37.5694 877.206 36.5338 879.655 36.5338C882.822 36.5338 885.614 38.5428 888.03 42.5607C890.446 46.5786 892.332 52.274 893.687 59.6471C895.042 67.0201 895.72 75.7186 895.72 85.7427C895.72 95.8495 895.042 104.61 893.687 112.025C892.332 119.398 890.455 125.114 888.055 129.173C885.655 133.191 882.887 135.2 879.753 135.2C877.337 135.2 875.402 134.185 873.949 132.156C872.496 130.084 871.378 127.744 870.594 125.135C869.81 122.484 869.206 120.288 868.782 118.549H868.096V133.212H862.513ZM868.194 85.4941C868.194 92.7015 868.61 99.0597 869.443 104.569C870.276 110.036 871.492 114.324 873.092 117.43C874.692 120.495 876.651 122.028 878.969 122.028C881.385 122.028 883.402 120.413 885.018 117.182C886.651 113.909 887.875 109.519 888.691 104.01C889.524 98.4591 889.94 92.2873 889.94 85.4941C889.94 78.7838 889.532 72.7363 888.716 67.3515C887.916 61.9253 886.7 57.6381 885.067 54.4901C883.451 51.3006 881.418 49.7059 878.969 49.7059C876.618 49.7059 874.643 51.2178 873.043 54.2416C871.443 57.2239 870.235 61.4075 869.418 66.7923C868.602 72.1357 868.194 78.3696 868.194 85.4941Z" fill="#121212"/>
<path d="M927.427 135.2C923.901 135.2 920.864 133.088 918.317 128.863C915.77 124.638 913.811 118.818 912.44 111.403C911.068 103.989 910.383 95.5181 910.383 85.9912C910.383 76.2985 911.085 67.745 912.489 60.3305C913.909 52.8746 915.884 47.0549 918.415 42.8713C920.962 38.6463 923.933 36.5338 927.329 36.5338C929.974 36.5338 932.357 37.7765 934.48 40.2618C936.602 42.7471 938.341 46.2265 939.696 50.7C941.051 55.1735 941.892 60.3927 942.218 66.3574H936.439C935.998 62.0081 935.019 58.1559 933.5 54.8007C931.998 51.4042 929.974 49.7059 927.427 49.7059C925.174 49.7059 923.199 51.1971 921.501 54.1794C919.819 57.1203 918.505 61.2832 917.558 66.668C916.627 72.0114 916.162 78.2868 916.162 85.4941C916.162 92.8672 916.619 99.2875 917.533 104.755C918.464 110.223 919.77 114.469 921.452 117.492C923.15 120.516 925.141 122.028 927.427 122.028C928.929 122.028 930.292 121.365 931.517 120.04C932.741 118.714 933.778 116.809 934.627 114.324C935.476 111.838 936.08 108.856 936.439 105.376H942.218C941.892 111.01 941.084 116.084 939.794 120.599C938.52 125.072 936.831 128.635 934.725 131.286C932.635 133.895 930.202 135.2 927.427 135.2Z" fill="#121212"/>
<path d="M973.534 135.2C970.138 135.2 967.159 133.15 964.595 129.049C962.049 124.948 960.057 119.211 958.62 111.838C957.2 104.465 956.489 95.8495 956.489 85.9912C956.489 76.05 957.2 67.3722 958.62 59.9577C960.057 52.5433 962.049 46.7857 964.595 42.6849C967.159 38.5842 970.138 36.5338 973.534 36.5338C976.93 36.5338 979.901 38.5842 982.448 42.6849C985.011 46.7857 987.003 52.5433 988.423 59.9577C989.86 67.3722 990.578 76.05 990.578 85.9912C990.578 95.8495 989.86 104.465 988.423 111.838C987.003 119.211 985.011 124.948 982.448 129.049C979.901 133.15 976.93 135.2 973.534 135.2ZM973.534 122.028C976.113 122.028 978.236 120.35 979.901 116.995C981.566 113.64 982.799 109.229 983.599 103.761C984.399 98.2934 984.799 92.3701 984.799 85.9912C984.799 79.6123 984.399 73.6683 983.599 68.1592C982.799 62.6501 981.566 58.1973 979.901 54.8007C978.236 51.4042 976.113 49.7059 973.534 49.7059C970.954 49.7059 968.832 51.4042 967.167 54.8007C965.501 58.1973 964.269 62.6501 963.469 68.1592C962.669 73.6683 962.269 79.6123 962.269 85.9912C962.269 92.3701 962.669 98.2934 963.469 103.761C964.269 109.229 965.501 113.64 967.167 116.995C968.832 120.35 970.954 122.028 973.534 122.028Z" fill="#121212"/>
<path d="M1011.2 134.206C1009.99 134.206 1008.95 133.108 1008.09 130.913C1007.22 128.718 1006.79 126.087 1006.79 123.022C1006.79 119.957 1007.22 117.327 1008.09 115.131C1008.95 112.936 1009.99 111.838 1011.2 111.838C1012.41 111.838 1013.44 112.936 1014.31 115.131C1015.17 117.327 1015.61 119.957 1015.61 123.022C1015.61 125.052 1015.4 126.916 1014.99 128.614C1014.6 130.312 1014.07 131.679 1013.4 132.715C1012.75 133.709 1012.01 134.206 1011.2 134.206Z" fill="#121212"/>
<path d="M1039.34 75.8015V133.212H1033.56V37.7765H1039.15V52.6882H1039.64C1040.52 47.8419 1041.86 43.9483 1043.65 41.0074C1045.45 38.025 1047.77 36.5338 1050.61 36.5338C1053.15 36.5338 1055.38 37.8593 1057.29 40.5103C1059.2 43.1199 1060.69 47.0963 1061.75 52.4397C1062.81 57.7417 1063.34 64.452 1063.34 72.5706V133.212H1057.56V73.5647C1057.56 66.0674 1056.79 60.227 1055.26 56.0434C1053.73 51.8184 1051.62 49.7059 1048.94 49.7059C1047.1 49.7059 1045.45 50.7207 1044 52.7504C1042.56 54.78 1041.42 57.7417 1040.59 61.6353C1039.76 65.5289 1039.34 70.251 1039.34 75.8015Z" fill="#121212"/>
<path d="M1096.77 135.2C1093.37 135.2 1090.39 133.15 1087.83 129.049C1085.28 124.948 1083.29 119.211 1081.86 111.838C1080.44 104.465 1079.72 95.8495 1079.72 85.9912C1079.72 76.05 1080.44 67.3722 1081.86 59.9577C1083.29 52.5433 1085.28 46.7857 1087.83 42.6849C1090.39 38.5842 1093.37 36.5338 1096.77 36.5338C1100.17 36.5338 1103.14 38.5842 1105.68 42.6849C1108.25 46.7857 1110.24 52.5433 1111.66 59.9577C1113.1 67.3722 1113.81 76.05 1113.81 85.9912C1113.81 95.8495 1113.1 104.465 1111.66 111.838C1110.24 119.211 1108.25 124.948 1105.68 129.049C1103.14 133.15 1100.17 135.2 1096.77 135.2ZM1096.77 122.028C1099.35 122.028 1101.47 120.35 1103.14 116.995C1104.8 113.64 1106.03 109.229 1106.83 103.761C1107.63 98.2934 1108.03 92.3701 1108.03 85.9912C1108.03 79.6123 1107.63 73.6683 1106.83 68.1592C1106.03 62.6501 1104.8 58.1973 1103.14 54.8007C1101.47 51.4042 1099.35 49.7059 1096.77 49.7059C1094.19 49.7059 1092.07 51.4042 1090.4 54.8007C1088.74 58.1973 1087.5 62.6501 1086.7 68.1592C1085.9 73.6683 1085.5 79.6123 1085.5 85.9912C1085.5 92.3701 1085.9 98.2934 1086.7 103.761C1087.5 109.229 1088.74 113.64 1090.4 116.995C1092.07 120.35 1094.19 122.028 1096.77 122.028Z" fill="#121212"/>
<path d="M1136 75.8015V133.212H1130.22V37.7765H1135.8V52.6882H1136.29C1137.18 47.8419 1138.52 43.9483 1140.31 41.0074C1142.11 38.025 1144.42 36.5338 1147.27 36.5338C1149.81 36.5338 1152.04 37.8593 1153.95 40.5103C1155.86 43.1199 1157.35 47.0963 1158.41 52.4397C1159.47 57.7417 1160 64.452 1160 72.5706V133.212H1154.22V73.5647C1154.22 66.0674 1153.45 60.227 1151.92 56.0434C1150.38 51.8184 1148.28 49.7059 1145.6 49.7059C1143.76 49.7059 1142.11 50.7207 1140.65 52.7504C1139.22 54.78 1138.08 57.7417 1137.25 61.6353C1136.42 65.5289 1136 70.251 1136 75.8015Z" fill="#121212"/>
</svg>
