<svg width="830" height="500" viewBox="0 0 830 500" fill="none" xmlns="http://www.w3.org/2000/svg">
<path d="M382.842 1.18646C341.346 3.55942 306.145 11.9966 259.51 30.7165C226.236 44.0314 182.428 67.4972 154.807 86.8763C112.412 116.406 57.6832 167.952 21.3261 212.379C2.69788 235.317 0 239.8 0 248.105C0 256.674 1.67011 259.442 19.656 281.194C83.3772 358.052 160.202 422.253 226.879 454.683C246.792 464.307 280.194 478.017 297.409 483.422C313.468 488.564 348.155 495.946 366.783 498.319C385.283 500.56 441.681 500.56 461.851 498.319C502.062 493.705 548.954 479.599 595.717 458.111C630.789 442.028 679.48 408.938 723.288 371.63C760.159 340.254 823.495 269.593 828.505 254.301C831.331 245.732 830.432 241.777 823.366 232.285C792.662 190.627 745.899 142.377 704.017 109.287C690.913 98.8728 652.758 72.3749 641.067 65.3879C637.855 63.5423 624.237 56.2916 610.619 49.3046C552.294 19.3791 501.42 4.74588 442.709 1.18646C417.529 -0.395508 410.334 -0.395508 382.842 1.18646ZM435.257 48.1181C439.882 48.6454 442.452 49.7001 443.223 51.282C443.993 52.6004 445.021 60.5102 445.535 68.8155C446.434 80.2847 447.205 84.6351 448.875 86.6126C450.16 87.9309 456.07 90.6994 462.108 92.6768C468.146 94.6543 476.368 97.5545 480.222 99.4002C484.076 101.114 488.573 102.564 490.114 102.564C492.941 102.564 499.236 96.3681 511.826 81.0757C515.294 76.989 519.02 73.5614 520.305 73.5614C523.003 73.5614 544.586 90.963 556.662 102.828C567.967 114.033 567.967 116.011 557.69 130.644C544.714 149.232 544.843 145.936 556.02 169.666C561.287 181.003 566.683 191.286 568.096 192.472C570.28 194.45 573.492 194.845 589.679 194.845H608.692L610.106 203.414C613.831 225.43 615.244 255.092 612.547 257.86C611.647 258.783 608.821 259.442 606.123 259.442C603.554 259.442 596.873 260.102 591.477 260.892C577.988 263.002 576.318 264.847 573.106 280.535C571.693 287.39 569.509 296.619 568.096 300.969C564.756 312.043 565.783 314.284 578.502 323.38C592.634 333.663 594.818 335.904 594.818 339.332C594.818 342.496 583.641 360.688 571.564 376.771C566.04 384.286 562.957 387.318 561.03 387.318C559.488 387.318 552.551 383.495 545.614 378.749C528.655 367.148 527.499 366.884 517.479 375.058C512.982 378.749 506.045 383.89 501.934 386.659C497.18 389.955 494.225 392.855 493.711 395.096C493.326 396.942 494.225 405.642 495.895 414.343C497.437 423.044 499.107 431.745 499.364 433.722C499.878 436.359 499.236 437.677 497.052 439.127C491.271 442.95 456.712 451.124 449.389 450.333C445.278 449.937 445.15 449.806 440.011 433.459C433.716 413.289 434.101 413.552 413.931 414.079C396.202 414.475 396.459 414.211 390.55 433.854C385.026 452.179 384.897 452.31 371.279 449.937C357.533 447.433 342.502 443.61 336.335 440.841C330.426 438.204 330.426 438.468 334.794 415.266C337.363 401.819 337.877 396.81 336.849 394.437C336.078 392.855 331.197 388.504 326.058 384.945C320.919 381.386 314.495 376.508 311.669 374.267C308.971 372.026 305.245 370.18 303.447 370.18C301.648 370.18 293.683 374.003 285.846 378.749C277.881 383.495 270.302 387.318 268.76 387.318C264.263 387.318 234.587 343.55 235.358 338.013C235.615 336.431 240.111 332.345 246.663 327.862C259.125 319.293 264.649 313.493 264.649 309.142C264.649 307.56 263.493 302.419 262.079 297.673C260.666 292.927 258.868 285.149 258.225 280.14C256.941 270.78 255.014 266.561 251.802 265.375C250.774 264.847 243.323 263.661 235.101 262.606C213.004 259.706 215.316 262.738 216.344 237.163C216.729 225.166 217.886 211.456 218.785 206.71L220.455 198.141L239.854 197.482C261.694 196.691 263.236 196.164 266.961 186.276C267.989 183.376 271.972 174.807 275.826 167.293C279.551 159.779 282.635 152.001 282.635 150.155C282.635 147.65 279.423 142.509 272.357 133.412C265.677 124.975 262.079 119.175 262.079 117.065C262.079 112.847 274.156 100.455 292.013 86.2171C308.971 72.7704 310.513 72.7704 320.533 85.6898C331.582 99.9275 335.564 103.882 338.648 103.882C340.189 103.882 345.328 102.169 350.21 100.191C355.092 98.0818 363.186 95.0498 368.067 93.336C373.078 91.754 378.088 89.381 379.244 88.1945C381.685 85.8216 383.998 71.8476 384.126 58.7964C384.126 54.3141 384.769 50.8865 385.796 50.2274C389.522 47.7226 421.383 46.4043 435.257 48.1181ZM620.383 107.442C653.4 128.007 681.535 148.705 704.788 169.402C721.232 183.903 755.02 218.443 767.996 233.472C780.971 248.764 781.357 245.732 763.628 266.298C726.5 309.142 686.931 345.132 642.994 375.585C626.935 386.659 604.71 400.501 604.067 399.842C603.811 399.71 605.866 396.414 608.692 392.591C666.247 314.547 664.706 176.521 605.609 101.509C603.682 99.2683 602.654 97.2909 603.168 97.2909C603.682 97.2909 611.519 101.773 620.383 107.442ZM224.823 99.1365C224.823 99.532 221.997 103.487 218.656 108.101C206.709 124.316 193.733 153.714 187.181 179.685C175.234 226.748 176.39 283.172 190.393 327.862C197.587 351.065 209.15 375.058 220.84 391.141C223.795 395.096 225.851 398.523 225.465 398.919C224.695 399.842 195.146 380.99 177.032 367.939C142.217 343.023 106.887 310.856 74.6413 274.735C64.2352 262.87 54.5999 251.664 53.3152 249.819L51.1312 246.391L68.3462 226.88C109.2 180.871 149.668 146.068 200.671 113.111C221.483 99.6638 224.823 97.6864 224.823 99.1365Z" fill="url(#paint0_linear_42_3)"/>
<path d="M396.331 160.042C391.449 161.097 381.814 164.788 375.133 168.084C364.984 173.093 361.387 175.862 352.009 185.486C339.547 198.273 333.509 209.347 329.013 227.012C318.735 267.22 338.005 312.438 373.206 330.895C398.772 344.341 427.035 344.473 453.5 331.158C490.114 312.702 510.541 268.671 501.163 228.462C493.326 195.109 471.615 170.852 440.653 161.229C430.504 158.197 407.508 157.406 396.331 160.042Z" fill="url(#paint1_radial_42_3)"/>
<defs>
<linearGradient id="paint0_linear_42_3" x1="475.019" y1="500.297" x2="220.31" y2="35.623" gradientUnits="userSpaceOnUse">
<stop stop-color="#862EE3"/>
<stop offset="0.355769" stop-color="#1E0F64"/>
<stop offset="0.605769" stop-color="#061474"/>
<stop offset="0.895287" stop-color="#4361EE"/>
</linearGradient>
<radialGradient id="paint1_radial_42_3" cx="0" cy="0" r="1" gradientUnits="userSpaceOnUse" gradientTransform="translate(414.844 249.754) rotate(-90) scale(91.3083 88.5885)">
<stop offset="0.225962" stop-color="#090E39"/>
<stop offset="0.610577" stop-color="#6B26B7"/>
<stop offset="1" stop-color="#081271"/>
</radialGradient>
</defs>
</svg>
